<svg width="351" height="119" viewBox="0 0 351 119" fill="none" xmlns="http://www.w3.org/2000/svg">
<path d="M0 85.3438H11.7031V20.7188L21.7031 85.3438H32.9219L42.9219 20.7188V85.3438H55.5938V0H36.7031L27.7969 61.9375L18.8906 0H0V85.3438Z" fill="white"/>
<path d="M94.4834 85.3438H107.905L93.999 0H75.8271L61.9365 85.3438H74.374L76.6865 68.6406H92.1709L94.4834 85.3438ZM78.3896 57.0625L84.374 14.0156L90.4678 57.0625H78.3896Z" fill="white"/>
<path d="M114.239 85.3438H127.646V50.5938H133.989C147.396 50.5938 153.989 43.1563 153.989 29.5V21.0938C153.989 7.4375 147.396 0 133.989 0H114.239V85.3438ZM127.646 38.4063V12.1875H133.989C138.255 12.1875 140.567 14.1406 140.567 20.2344V30.3594C140.567 36.4531 138.255 38.4063 133.989 38.4063H127.646Z" fill="white"/>
<path d="M161.179 85.3438H174.585V48.1563H191.897V35.9688H174.585V12.1875H196.663V0H161.179V85.3438Z" fill="#F2C12E"/>
<path d="M203.119 85.3438H216.525V0H203.119V85.3438Z" fill="#F2C12E"/>
<path d="M226.528 85.3438H239.935V48.7656H244.575C250.669 48.7656 252.981 51.3281 252.981 59.25V74.8594C252.981 81.8125 253.466 83.1563 254.2 85.3438H267.856C266.513 82.1719 266.403 79.125 266.403 74.9844V59.9844C266.403 50.3594 264.2 44.0156 257.497 41.9375V41.7031C263.466 39.25 266.278 33.6563 266.278 24.875V19.625C266.278 6.45313 260.294 0 246.403 0H226.528V85.3438ZM239.935 36.5781V12.1875H246.028C250.794 12.1875 252.856 14.875 252.856 20.9688V27.5469C252.856 34.375 249.81 36.5781 244.81 36.5781H239.935Z" fill="#F2C12E"/>
<path d="M275.662 85.3438H312.24V73.1563H289.068V46.9375H307.49V34.75H289.068V12.1875H312.24V0H275.662V85.3438Z" fill="#F2C12E"/>
<path d="M164.399 108.928C164.946 109.428 166.212 108.162 166.149 106.787C168.728 99.6621 179.04 77.4434 181.79 73.1621C181.134 79.6934 180.478 87.0996 180.478 93.8496C180.478 95.334 180.524 96.8028 180.587 98.2403C180.962 105.912 182.274 118.647 188.478 118.647C189.134 118.647 189.024 118.037 188.696 117.928C184.587 116.615 182.884 108.709 182.556 97.9121C182.493 96.5371 182.493 95.2246 182.493 93.8496C182.493 86.9903 183.056 80.4121 183.868 71.8965C183.931 70.8028 182.384 69.2715 181.509 70.4278C179.321 72.2871 169.009 94.7715 165.212 104.162C162.915 94.7246 162.306 84.4121 161.056 76.7871C160.837 75.7403 159.024 74.6465 158.853 75.4121C158.853 75.4746 158.806 75.5215 158.853 75.584C158.743 76.2403 158.696 77.3809 158.478 78.209C155.399 89.2871 141.743 117.272 125.665 112.272C125.118 112.115 125.165 112.615 125.618 112.99C137.837 118.647 153.54 100.756 159.79 79.5215C160.618 89.0215 162.196 98.8965 164.399 108.928Z" fill="white"/>
<path d="M187.866 105.365C188.476 105.756 189.132 105.912 189.851 105.912C192.757 105.912 196.366 103.115 197.913 101.74C198.616 103.725 199.991 104.756 201.804 105.209C204.101 105.756 207.897 103.99 209.272 102.631C212.288 99.5998 211.46 98.2405 210.522 99.1623C208.554 101.365 203.835 104.162 201.038 103.615C200.054 103.334 199.772 102.24 199.835 101.303C199.944 100.272 200.429 99.2717 200.71 98.4592C201.085 97.803 199.226 96.5842 198.897 97.1936L197.96 98.4592H197.913C196.538 97.8498 195.007 97.5217 193.46 97.5217C191.538 97.5217 189.679 98.0217 188.194 99.0061C186.835 99.928 186.226 101.147 186.226 102.35C186.226 103.506 186.772 104.537 187.866 105.365ZM188.851 104.162C188.038 104.1 187.71 103.506 187.866 102.85C188.476 100.319 192.101 99.2717 194.835 99.2717C195.663 99.2717 196.429 99.3811 196.976 99.553C195.054 101.584 191.491 103.834 188.851 104.162Z" fill="white"/>
<path d="M209.808 105.865C210.026 106.678 211.839 107.396 211.792 106.678C212.011 105.099 212.011 104.756 212.167 104.318C213.479 100.537 218.042 97.1932 220.776 97.2401L220.729 97.6932C220.667 98.1307 221.448 98.4588 222.214 97.5838C222.589 97.1307 221.823 95.9901 220.558 95.7713C217.542 95.2713 213.479 98.4588 212.12 100.209L212.167 98.0682C212.167 97.7401 211.839 97.1932 211.354 96.9119C210.792 96.6463 210.245 96.6463 210.245 97.0213C209.479 103.943 209.589 105.365 209.808 105.865Z" fill="white"/>
<path d="M225.057 105.365C225.666 105.756 226.322 105.912 227.041 105.912C229.947 105.912 233.557 103.115 235.104 101.74C235.807 103.725 237.182 104.756 238.994 105.209C241.291 105.756 245.088 103.99 246.463 102.631C249.479 99.5998 248.65 98.2405 247.713 99.1623C245.744 101.365 241.025 104.162 238.229 103.615C237.244 103.334 236.963 102.24 237.025 101.303C237.135 100.272 237.619 99.2717 237.9 98.4592C238.275 97.803 236.416 96.5842 236.088 97.1936L235.15 98.4592H235.104C233.729 97.8498 232.197 97.5217 230.65 97.5217C228.729 97.5217 226.869 98.0217 225.385 99.0061C224.025 99.928 223.416 101.147 223.416 102.35C223.416 103.506 223.963 104.537 225.057 105.365ZM226.041 104.162C225.229 104.1 224.9 103.506 225.057 102.85C225.666 100.319 229.291 99.2717 232.025 99.2717C232.854 99.2717 233.619 99.3811 234.166 99.553C232.244 101.584 228.682 103.834 226.041 104.162Z" fill="white"/>
<path d="M246.779 104.865C246.841 105.756 248.763 106.24 248.7 105.537L248.763 104.271C249.794 101.959 253.966 99.3337 258.029 98.8962C257.919 99.5525 257.857 100.162 257.857 100.756C257.857 101.74 258.029 102.677 258.575 103.506C259.56 104.927 261.325 105.584 262.904 105.584C266.747 105.584 270.31 102.677 271.638 100.974C272.45 99.9275 272.232 98.7243 272.013 98.8337C270.263 99.7087 265.482 104.052 262.091 104.052C261.372 104.052 260.763 103.881 260.216 103.443C259.513 102.396 260.107 100.318 260.107 99.3806C260.107 98.5681 259.122 97.5837 258.075 97.4587C255.013 97.1306 251.06 99.115 249.2 100.49L249.31 98.615C249.357 98.2868 248.872 97.8025 248.435 97.5212C247.872 97.3025 247.325 97.3493 247.325 97.74L246.779 103.224C246.669 103.881 246.732 104.427 246.779 104.865Z" fill="white"/>
<path d="M271.139 106.459C271.357 107.334 273.061 108.053 272.998 107.225C273.217 104.709 278.982 98.8965 282.107 99.0527C282.107 99.4434 281.998 100.1 281.998 100.865C281.998 102.021 282.279 103.443 283.529 104.381C284.795 105.209 285.998 105.475 287.217 105.475C290.717 105.475 294.842 103.396 296.045 101.584C296.857 100.381 297.139 98.6152 296.639 99.2246C294.889 101.584 288.967 103.881 286.107 103.881C285.514 103.881 284.904 103.771 284.357 103.506C283.967 101.912 284.404 100.381 284.248 99.0527C284.029 98.3496 283.201 97.6934 282.436 97.459C279.311 96.4746 274.654 100.865 272.951 102.787V97.9121C273.061 90.3965 273.17 83.2559 273.873 76.2402C273.873 75.4121 271.732 74.7559 271.732 75.5215C271.357 82.5371 271.076 89.2871 271.076 96.8652V104.646C271.076 105.693 271.076 106.35 271.139 106.459Z" fill="white"/>
<path d="M295.761 105.365C296.308 105.756 297.026 105.865 297.745 105.865C298.448 105.865 299.214 105.756 299.823 105.537C301.026 105.037 303.167 103.99 305.808 101.74L305.917 101.85C306.511 103.725 307.886 104.756 309.698 105.209C311.995 105.756 315.792 103.99 317.167 102.631C320.183 99.5997 319.354 98.2403 318.417 99.1622C316.448 101.365 311.729 104.162 308.933 103.615C307.948 103.334 307.667 102.24 307.729 101.303C307.839 100.272 308.323 99.2716 308.604 98.4591C308.979 97.8028 307.12 96.5841 306.792 97.1935L305.854 98.4591H305.808C304.542 97.9122 303.886 97.631 302.073 97.631C299.823 97.631 297.417 98.3497 296.089 99.2247C294.729 100.162 294.12 101.256 294.12 102.397C294.12 103.506 294.667 104.537 295.761 105.365ZM296.745 104.162C295.933 104.1 295.604 103.506 295.761 102.85C295.933 102.131 296.479 101.365 297.464 100.709C298.667 99.9278 300.87 99.2716 302.839 99.2716C303.495 99.2716 303.933 99.2716 304.87 99.5528L304.714 99.6622C302.948 101.584 299.386 103.834 296.745 104.162ZM303.12 94.7716C304.433 95.2247 305.917 94.881 306.073 93.631C306.245 92.3653 305.042 92.0372 304.479 92.1466C304.104 92.1935 304.042 92.5841 304.151 92.9122C304.151 93.7872 302.948 93.2403 302.511 93.0841C301.464 92.6935 300.261 91.9278 299.167 92.1935C297.901 92.5216 298.011 94.1778 298.776 94.506C299.214 94.7716 300.261 94.6153 300.104 94.3341C299.386 93.0841 302.683 94.6153 303.12 94.7716Z" fill="white"/>
<path d="M322.42 96.5369C321.655 96.5369 321.373 96.7556 321.608 97.3494L321.545 97.3025C320.998 97.1306 320.608 97.0838 320.233 97.1931C318.202 98.2869 317.545 100.381 317.592 102.24C317.811 104.209 319.514 106.349 322.264 106.678C326.092 107.006 328.077 104.818 328.452 102.631C328.623 101.693 328.514 100.818 328.295 100.053C328.78 100.053 329.342 100.099 329.889 100.099C335.967 100.099 343.983 98.7244 347.873 97.4588C348.264 97.3494 350.561 96.4744 350.123 96.0369C349.858 95.5994 347.827 96.0994 347.436 96.2088C345.03 96.9119 335.702 98.0213 329.233 98.0213C328.405 98.0213 327.639 98.0213 326.92 97.9588C325.764 96.9744 324.123 96.4744 322.42 96.5369ZM324.889 99.5994L325.655 99.7713C326.092 100.318 326.311 101.037 326.264 101.803C326.092 104.099 324.186 105.693 322.045 105.256C320.28 104.928 319.514 103.006 319.905 101.037C320.233 99.3338 321.108 98.7869 321.936 98.4588L322.092 98.5681C322.42 98.8963 324.077 99.49 324.889 99.5994Z" fill="white"/>
</svg>
