<svg width="230" height="78" viewBox="0 0 230 78" fill="none" xmlns="http://www.w3.org/2000/svg">
<path d="M0 56.0312H7.6875V13.6094L14.25 56.0312H21.6094L28.1719 13.6094V56.0312H36.5V0H24.0938L18.25 40.6562L12.4062 0H0V56.0312Z" fill="#2A4359"/>
<path d="M62.0361 56.0312H70.8486L61.7236 0H49.7861L40.6611 56.0312H48.833L50.3486 45.0625H60.5205L62.0361 56.0312ZM51.4736 37.4531L55.3955 9.20312L59.3955 37.4531H51.4736Z" fill="#2A4359"/>
<path d="M75.0068 56.0312H83.8193V33.2188H87.9756C96.7725 33.2188 101.101 28.3281 101.101 19.375V13.8438C101.101 4.875 96.7725 0 87.9756 0H75.0068V56.0312ZM83.8193 25.2188V8H87.9756C90.7725 8 92.3037 9.28125 92.3037 13.2812V19.9375C92.3037 23.9375 90.7725 25.2188 87.9756 25.2188H83.8193Z" fill="#2A4359"/>
<path d="M105.826 56.0312H114.639V31.6094H125.998V23.6094H114.639V8H129.123V0H105.826V56.0312Z" fill="#F2490C"/>
<path d="M133.363 56.0312H142.176V0H133.363V56.0312Z" fill="#F2490C"/>
<path d="M148.733 56.0312H157.546V32.0156H160.577C164.577 32.0156 166.108 33.7031 166.108 38.9062V49.1406C166.108 53.7031 166.421 54.5938 166.905 56.0312H175.874C174.983 53.9531 174.905 51.9531 174.905 49.2344V39.375C174.905 33.0625 173.468 28.8906 169.062 27.5312V27.375C172.983 25.7812 174.827 22.0938 174.827 16.3281V12.8906C174.827 4.23438 170.905 0 161.78 0H148.733V56.0312ZM157.546 24.0156V8H161.546C164.671 8 166.03 9.76562 166.03 13.7656V18.0938C166.03 22.5781 164.03 24.0156 160.733 24.0156H157.546Z" fill="#F2490C"/>
<path d="M180.993 56.0312H205.009V48.0312H189.806V30.8125H201.884V22.8125H189.806V8H205.009V0H180.993V56.0312Z" fill="#F2490C"/>
<path d="M107.936 71.5205C108.295 71.8486 109.123 71.0205 109.092 70.1143C110.779 65.4268 117.561 50.8486 119.357 48.0361C118.92 52.3174 118.498 57.1924 118.498 61.6143C118.498 62.583 118.529 63.5674 118.561 64.4893C118.811 69.5361 119.686 77.8955 123.748 77.8955C124.186 77.8955 124.107 77.5049 123.889 77.4268C121.186 76.5674 120.076 71.3799 119.857 64.2861C119.826 63.3799 119.826 62.5205 119.826 61.6143C119.826 57.1143 120.186 52.7861 120.732 47.208C120.764 46.4893 119.748 45.4736 119.17 46.2393C117.732 47.458 110.967 62.2236 108.482 68.3799C106.967 62.1924 106.576 55.4268 105.748 50.4111C105.592 49.7236 104.404 49.0049 104.295 49.5205C104.295 49.5518 104.264 49.583 104.295 49.6143C104.232 50.0518 104.201 50.8174 104.045 51.3486C102.029 58.6299 93.0605 76.9893 82.5137 73.7236C82.1543 73.6143 82.1855 73.9268 82.4824 74.1768C90.5137 77.8955 100.811 66.1455 104.92 52.208C105.451 58.4424 106.498 64.9268 107.936 71.5205Z" fill="#F28322"/>
<path d="M123.348 69.1767C123.754 69.4267 124.176 69.5361 124.645 69.5361C126.566 69.5361 128.941 67.708 129.941 66.8017C130.41 68.0986 131.316 68.7861 132.504 69.0673C134.02 69.4267 136.504 68.2705 137.395 67.3798C139.379 65.3955 138.848 64.4892 138.223 65.1142C136.926 66.5517 133.832 68.3798 132.004 68.0205C131.348 67.8486 131.176 67.1298 131.207 66.5205C131.27 65.833 131.598 65.1767 131.785 64.6455C132.035 64.208 130.816 63.4111 130.598 63.8173L129.973 64.6455H129.941C129.051 64.2392 128.035 64.0205 127.02 64.0205C125.77 64.0205 124.535 64.3486 123.566 65.0048C122.676 65.6142 122.27 66.4111 122.27 67.1923C122.27 67.958 122.629 68.6455 123.348 69.1767ZM124.004 68.3798C123.457 68.3486 123.238 67.958 123.348 67.5205C123.754 65.8642 126.129 65.1767 127.926 65.1767C128.473 65.1767 128.973 65.2548 129.332 65.3642C128.066 66.6923 125.738 68.1767 124.004 68.3798Z" fill="#F28322"/>
<path d="M137.754 69.5048C137.91 70.0361 139.097 70.5048 139.05 70.0361C139.207 69.0048 139.207 68.7861 139.3 68.4892C140.175 66.0048 143.16 63.8173 144.957 63.8486L144.925 64.1298C144.894 64.4267 145.394 64.6454 145.894 64.0673C146.144 63.7704 145.644 63.0204 144.816 62.8798C142.832 62.5517 140.175 64.6454 139.269 65.7861L139.3 64.3954C139.3 64.1767 139.097 63.8173 138.769 63.6298C138.41 63.4579 138.05 63.4579 138.05 63.7079C137.55 68.2392 137.613 69.1767 137.754 69.5048Z" fill="#F28322"/>
<path d="M147.766 69.1767C148.172 69.4267 148.594 69.5361 149.062 69.5361C150.984 69.5361 153.359 67.708 154.359 66.8017C154.828 68.0986 155.734 68.7861 156.922 69.0673C158.438 69.4267 160.922 68.2705 161.812 67.3798C163.797 65.3955 163.266 64.4892 162.641 65.1142C161.344 66.5517 158.25 68.3798 156.422 68.0205C155.766 67.8486 155.594 67.1298 155.625 66.5205C155.688 65.833 156.016 65.1767 156.203 64.6455C156.453 64.208 155.234 63.4111 155.016 63.8173L154.391 64.6455H154.359C153.469 64.2392 152.453 64.0205 151.438 64.0205C150.188 64.0205 148.953 64.3486 147.984 65.0048C147.094 65.6142 146.688 66.4111 146.688 67.1923C146.688 67.958 147.047 68.6455 147.766 69.1767ZM148.422 68.3798C147.875 68.3486 147.656 67.958 147.766 67.5205C148.172 65.8642 150.547 65.1767 152.344 65.1767C152.891 65.1767 153.391 65.2548 153.75 65.3642C152.484 66.6923 150.156 68.1767 148.422 68.3798Z" fill="#F28322"/>
<path d="M162.031 68.8486C162.062 69.4267 163.328 69.7548 163.297 69.2861L163.328 68.4579C164.016 66.9423 166.75 65.2236 169.422 64.9267C169.344 65.3642 169.312 65.7548 169.312 66.1454C169.312 66.8017 169.422 67.4111 169.781 67.9579C170.422 68.8954 171.578 69.3173 172.625 69.3173C175.141 69.3173 177.484 67.4111 178.344 66.3017C178.891 65.6142 178.75 64.8173 178.594 64.8954C177.453 65.4736 174.312 68.3173 172.078 68.3173C171.609 68.3173 171.219 68.2079 170.859 67.9111C170.391 67.2392 170.781 65.8642 170.781 65.2548C170.781 64.7079 170.141 64.0673 169.453 63.9892C167.437 63.7704 164.844 65.0673 163.625 65.9736L163.687 64.7548C163.719 64.5361 163.406 64.2079 163.109 64.0204C162.75 63.8798 162.391 63.9267 162.391 64.1767L162.031 67.7704C161.969 68.2079 162 68.5673 162.031 68.8486Z" fill="#F28322"/>
<path d="M178.031 69.8955C178.172 70.4736 179.281 70.9424 179.25 70.3955C179.391 68.7393 183.172 64.9268 185.234 65.0361C185.234 65.2861 185.156 65.7236 185.156 66.2236C185.156 66.9893 185.328 67.9111 186.156 68.5361C186.984 69.0674 187.781 69.2549 188.578 69.2549C190.875 69.2549 193.578 67.8799 194.375 66.6924C194.922 65.8955 195.094 64.7549 194.766 65.1455C193.625 66.6924 189.734 68.208 187.859 68.208C187.453 68.208 187.062 68.1299 186.703 67.958C186.453 66.9111 186.734 65.8955 186.625 65.0361C186.484 64.5674 185.953 64.1299 185.438 63.9893C183.391 63.3486 180.328 66.2236 179.219 67.4893V64.2861C179.281 59.3486 179.359 54.6611 179.828 50.0518C179.828 49.5205 178.422 49.083 178.422 49.583C178.172 54.1924 177.984 58.6299 177.984 63.5986V68.708C177.984 69.3955 177.984 69.833 178.031 69.8955Z" fill="#F28322"/>
<path d="M194.188 69.1768C194.548 69.4268 195.017 69.5049 195.485 69.5049C195.954 69.5049 196.47 69.4268 196.86 69.2861C197.657 68.958 199.063 68.2705 200.782 66.8018L200.86 66.8799C201.251 68.0986 202.157 68.7861 203.345 69.0674C204.86 69.4268 207.345 68.2705 208.235 67.3799C210.22 65.3955 209.688 64.4893 209.063 65.1143C207.767 66.5518 204.673 68.3799 202.845 68.0205C202.188 67.8486 202.017 67.1299 202.048 66.5205C202.11 65.833 202.438 65.1768 202.626 64.6455C202.876 64.208 201.657 63.4111 201.438 63.8174L200.813 64.6455H200.782C199.954 64.2861 199.532 64.0986 198.329 64.0986C196.86 64.0986 195.282 64.5674 194.407 65.1455C193.517 65.7549 193.11 66.4736 193.11 67.2393C193.11 67.958 193.47 68.6455 194.188 69.1768ZM194.845 68.3799C194.298 68.3486 194.079 67.958 194.188 67.5205C194.298 67.0518 194.657 66.5518 195.313 66.1143C196.11 65.6143 197.548 65.1768 198.845 65.1768C199.267 65.1768 199.563 65.1768 200.173 65.3643L200.063 65.4268C198.907 66.6924 196.579 68.1768 194.845 68.3799ZM199.017 62.2236C199.892 62.5205 200.86 62.3018 200.97 61.4736C201.079 60.6455 200.282 60.4268 199.923 60.5049C199.673 60.5361 199.626 60.7861 199.704 61.0049C199.704 61.583 198.907 61.2236 198.626 61.1143C197.938 60.8643 197.142 60.3486 196.423 60.5361C195.595 60.7549 195.673 61.833 196.173 62.0518C196.47 62.2236 197.142 62.1143 197.032 61.9424C196.579 61.1143 198.735 62.1143 199.017 62.2236Z" fill="#F28322"/>
<path d="M211.704 63.3799C211.188 63.3799 211.016 63.5205 211.157 63.9267L211.125 63.8799C210.766 63.7705 210.516 63.7392 210.25 63.8174C208.922 64.5361 208.485 65.8955 208.532 67.1299C208.672 68.4267 209.782 69.833 211.594 70.0361C214.11 70.2549 215.407 68.8174 215.657 67.3799C215.766 66.7705 215.688 66.1924 215.547 65.6924C215.875 65.6924 216.235 65.7236 216.594 65.7236C220.594 65.7236 225.844 64.8174 228.407 63.9892C228.657 63.9267 230.172 63.3486 229.891 63.0517C229.704 62.7705 228.375 63.0986 228.125 63.1611C226.532 63.6299 220.407 64.3486 216.157 64.3486C215.625 64.3486 215.125 64.3486 214.657 64.3174C213.891 63.6611 212.813 63.3486 211.704 63.3799ZM213.313 65.3955L213.829 65.5049C214.11 65.8642 214.25 66.333 214.219 66.833C214.11 68.3486 212.844 69.3955 211.438 69.0986C210.297 68.8955 209.782 67.6299 210.047 66.333C210.25 65.2236 210.829 64.8642 211.375 64.6455L211.485 64.708C211.704 64.9267 212.782 65.3174 213.313 65.3955Z" fill="#F28322"/>
</svg>
